<svg width="220" height="220" viewBox="0 0 220 220" fill="none" xmlns="http://www.w3.org/2000/svg">
<g clip-path="url(#clip0_132_190)">
<g filter="url(#filter0_d_132_190)">
<path d="M60.2924 163.016C50.9804 163.016 42.4364 161.048 34.6604 157.112C26.9804 153.08 20.8844 147.464 16.3724 140.264C11.9564 133.064 9.74844 124.856 9.74844 115.64C9.74844 106.904 11.9564 98.696 16.3724 91.016C20.8844 83.24 27.2684 77.048 35.5244 72.44C43.8764 67.736 53.5244 65.384 64.4684 65.384C68.4044 65.384 73.3484 65.912 79.3004 66.968C85.3484 68.024 90.0524 69.224 93.4124 70.568C95.2364 71.336 96.2924 72.632 96.5804 74.456C97.7324 82.328 98.3084 88.136 98.3084 91.88C98.3084 92.84 98.0684 93.56 97.5884 94.04C97.2044 94.52 96.6284 94.76 95.8604 94.76C94.8044 94.76 93.9884 94.52 93.4124 94.04C92.8364 93.56 92.3084 92.84 91.8284 91.88C89.3324 86.504 86.8364 82.568 84.3404 80.072C82.2284 77.96 79.8284 76.328 77.1404 75.176C74.4524 73.928 71.0924 73.304 67.0604 73.304C60.5324 73.304 54.9164 75.08 50.2124 78.632C45.5084 82.088 41.9564 86.744 39.5564 92.6C37.2524 98.36 36.1004 104.648 36.1004 111.464C36.1004 125 38.2604 135.608 42.5804 143.288C46.9964 150.968 53.7164 154.808 62.7404 154.808C65.2364 154.808 67.9724 153.752 70.9484 151.64C71.9084 150.968 72.6284 149.864 73.1084 148.328C73.6844 146.696 74.0204 144.824 74.1164 142.712C74.3084 139.448 74.4044 135.224 74.4044 130.04C74.4044 127.544 73.1564 125.816 70.6604 124.856C67.7804 123.704 65.0444 122.84 62.4524 122.264C61.4924 121.976 60.6284 121.544 59.8604 120.968C59.1884 120.392 58.8524 119.72 58.8524 118.952C58.8524 118.28 59.1404 117.752 59.7164 117.368C60.3884 116.984 61.1564 116.792 62.0204 116.792C65.6684 116.792 69.6524 116.936 73.9724 117.224C79.5404 117.416 83.1884 117.512 84.9164 117.512C86.7404 117.512 89.7644 117.416 93.9884 117.224C98.4044 117.032 101.668 116.936 103.78 116.936C105.316 116.936 106.084 117.656 106.084 119.096C106.084 119.96 105.844 120.632 105.364 121.112C104.98 121.592 104.308 121.928 103.348 122.12C100.564 122.888 98.6444 123.752 97.5884 124.712C96.5324 125.672 95.8124 127.16 95.4284 129.176C94.7564 132.44 94.4204 136.04 94.4204 139.976V144.872C94.4204 145.448 94.7084 146.072 95.2844 146.744C95.9564 147.32 96.3404 147.656 96.4364 147.752C97.3964 148.712 97.8764 149.768 97.8764 150.92C97.8764 151.688 97.6364 152.408 97.1564 153.08C96.6764 153.656 95.9084 153.992 94.8524 154.088C94.1804 154.184 92.8364 154.712 90.8204 155.672C86.5004 157.688 81.9404 159.416 77.1404 160.856C72.3404 162.296 66.7244 163.016 60.2924 163.016ZM112.391 161.72C109.895 161.72 108.647 160.904 108.647 159.272C108.647 158.408 108.887 157.784 109.367 157.4C109.943 156.92 110.759 156.488 111.815 156.104C114.695 155.336 117.143 154.136 119.159 152.504C121.271 150.872 122.807 149 123.767 146.888C132.887 125.672 141.095 104.84 148.391 84.392C149.543 81.224 150.455 78.392 151.127 75.896C151.799 73.304 152.231 72.008 152.423 72.008C156.551 71.048 160.151 70.04 163.223 68.984C164.855 68.408 166.391 67.64 167.831 66.68C169.271 65.72 170.375 64.808 171.143 63.944C171.911 63.56 172.391 63.368 172.583 63.368C173.063 63.368 173.447 63.704 173.735 64.376C174.407 65.816 174.935 67.16 175.319 68.408C181.271 87.8 187.847 108.44 195.047 130.328L200.375 146.888C201.719 151.304 205.559 154.376 211.895 156.104C212.951 156.488 213.719 156.872 214.199 157.256C214.775 157.64 215.063 158.264 215.063 159.128C215.063 159.8 214.775 160.328 214.199 160.712C213.719 161.096 213.095 161.288 212.327 161.288C210.407 161.288 206.567 161.192 200.807 161C194.855 160.808 190.727 160.712 188.423 160.712C186.503 160.712 182.855 160.808 177.479 161C173.063 161.288 169.031 161.432 165.383 161.432C164.519 161.432 163.799 161.24 163.223 160.856C162.647 160.472 162.359 159.944 162.359 159.272C162.359 157.64 163.415 156.584 165.527 156.104C168.887 155.432 171.335 154.616 172.871 153.656C174.503 152.6 175.319 151.16 175.319 149.336C175.319 148.376 175.223 147.608 175.031 147.032L170.567 130.328C170.375 129.464 170.087 128.84 169.703 128.456C169.415 128.072 168.935 127.88 168.263 127.88H143.207C142.439 127.88 141.911 128.072 141.623 128.456C141.335 128.84 141.047 129.464 140.759 130.328L138.743 136.52C138.455 137.576 138.023 138.968 137.447 140.696C136.871 142.424 136.391 143.96 136.007 145.304C135.623 146.552 135.431 147.8 135.431 149.048C135.431 150.872 136.103 152.312 137.447 153.368C138.887 154.328 141.383 155.24 144.935 156.104C147.047 156.584 148.103 157.64 148.103 159.272C148.103 160.616 147.095 161.288 145.079 161.288C142.871 161.288 140.039 161.192 136.583 161L128.807 160.856C126.119 160.856 123.479 161 120.887 161.288C120.023 161.384 118.727 161.48 116.999 161.576C115.271 161.672 113.735 161.72 112.391 161.72ZM165.239 119.528C166.679 119.528 167.399 119.192 167.399 118.52C167.399 118.424 167.303 117.896 167.111 116.936L157.895 85.112C157.607 84.152 157.319 83.672 157.031 83.672C156.839 83.672 156.551 84.152 156.167 85.112L145.079 116.936C144.887 117.32 144.791 117.704 144.791 118.088C144.791 118.568 145.031 118.952 145.511 119.24C145.991 119.432 146.567 119.528 147.239 119.528H165.239Z" fill="white"/>
<path d="M34.6604 157.112L34.1956 157.997L34.2022 158.001L34.2088 158.004L34.6604 157.112ZM16.3724 140.264L15.52 140.787L15.5251 140.795L16.3724 140.264ZM16.3724 91.016L15.5075 90.5141L15.5055 90.5175L16.3724 91.016ZM35.5244 72.44L36.0118 73.3132L36.0152 73.3113L35.5244 72.44ZM79.3004 66.968L79.1257 67.9526L79.1284 67.9531L79.3004 66.968ZM93.4124 70.568L93.8005 69.6464L93.7922 69.6429L93.7838 69.6395L93.4124 70.568ZM96.5804 74.456L97.57 74.3112L97.5682 74.3L96.5804 74.456ZM97.5884 94.04L96.8813 93.3329L96.8422 93.3721L96.8076 93.4153L97.5884 94.04ZM93.4124 94.04L92.7723 94.8082L92.7723 94.8082L93.4124 94.04ZM91.8284 91.88L90.9214 92.3011L90.9275 92.3143L90.934 92.3272L91.8284 91.88ZM84.3404 80.072L85.0476 79.3649L85.0476 79.3649L84.3404 80.072ZM77.1404 75.176L76.7193 76.083L76.7328 76.0893L76.7465 76.0951L77.1404 75.176ZM50.2124 78.632L50.8046 79.4379L50.815 79.43L50.2124 78.632ZM39.5564 92.6L38.6311 92.2208L38.628 92.2286L39.5564 92.6ZM42.5804 143.288L41.7088 143.778L41.7135 143.786L42.5804 143.288ZM70.9484 151.64L70.375 150.821L70.3697 150.824L70.9484 151.64ZM73.1084 148.328L72.1655 147.995L72.1594 148.012L72.154 148.03L73.1084 148.328ZM74.1164 142.712L73.1181 142.653L73.1175 142.667L74.1164 142.712ZM70.6604 124.856L70.289 125.785L70.3015 125.789L70.6604 124.856ZM62.4524 122.264L62.1651 123.222L62.2 123.232L62.2355 123.24L62.4524 122.264ZM59.8604 120.968L59.2097 121.727L59.2344 121.748L59.2604 121.768L59.8604 120.968ZM59.7164 117.368L59.2203 116.5L59.1904 116.517L59.1617 116.536L59.7164 117.368ZM73.9724 117.224L73.9059 118.222L73.9219 118.223L73.938 118.223L73.9724 117.224ZM93.9884 117.224L93.945 116.225L93.943 116.225L93.9884 117.224ZM105.364 121.112L104.657 120.405L104.618 120.444L104.584 120.487L105.364 121.112ZM103.348 122.12L103.152 121.139L103.117 121.146L103.083 121.156L103.348 122.12ZM97.5884 124.712L98.2611 125.452L98.2611 125.452L97.5884 124.712ZM95.4284 129.176L96.4079 129.378L96.4094 129.37L96.4108 129.363L95.4284 129.176ZM95.2844 146.744L94.5252 147.395L94.5752 147.453L94.6336 147.503L95.2844 146.744ZM96.4364 147.752L95.7293 148.459L95.7293 148.459L96.4364 147.752ZM97.1564 153.08L97.9247 153.72L97.9485 153.692L97.9702 153.661L97.1564 153.08ZM94.8524 154.088L94.7619 153.092L94.7364 153.094L94.711 153.098L94.8524 154.088ZM90.8204 155.672L91.2433 156.578L91.2504 156.575L90.8204 155.672ZM77.1404 160.856L77.4278 161.814L77.1404 160.856ZM60.2924 162.016C51.1263 162.016 42.7386 160.08 35.1121 156.22L34.2088 158.004C42.1343 162.016 50.8345 164.016 60.2924 164.016V162.016ZM35.1253 156.227C27.5985 152.275 21.6358 146.78 17.2198 139.733L15.5251 140.795C20.133 148.148 26.3624 153.885 34.1956 157.997L35.1253 156.227ZM17.2249 139.741C12.9141 132.713 10.7484 124.689 10.7484 115.64H8.74844C8.74844 125.023 10.9988 133.415 15.52 140.787L17.2249 139.741ZM10.7484 115.64C10.7484 107.082 12.9093 99.0451 17.2393 91.5145L15.5055 90.5175C11.0036 98.3469 8.74844 106.726 8.74844 115.64H10.7484ZM17.2374 91.5179C21.6544 83.9055 27.9043 77.8383 36.0118 73.3132L35.0371 71.5668C26.6326 76.2577 20.1144 82.5745 15.5075 90.5141L17.2374 91.5179ZM36.0152 73.3113C44.1972 68.703 53.6717 66.384 64.4684 66.384V64.384C53.3772 64.384 43.5556 66.769 35.0337 71.5687L36.0152 73.3113ZM64.4684 66.384C68.3236 66.384 73.2043 66.902 79.1257 67.9526L79.4751 65.9834C73.4926 64.9219 68.4853 64.384 64.4684 64.384V66.384ZM79.1284 67.9531C85.1483 69.0042 89.7745 70.1899 93.041 71.4965L93.7838 69.6395C90.3303 68.2581 85.5486 67.0438 79.4724 65.9829L79.1284 67.9531ZM93.0244 71.4896C94.557 72.135 95.3631 73.1583 95.5927 74.612L97.5682 74.3C97.2217 72.1057 95.9158 70.537 93.8005 69.6464L93.0244 71.4896ZM95.591 74.6008C96.7419 82.4657 97.3084 88.2132 97.3084 91.88H99.3084C99.3084 88.0588 98.7229 82.1903 97.5699 74.3112L95.591 74.6008ZM97.3084 91.88C97.3084 92.6859 97.1077 93.1066 96.8813 93.3329L98.2956 94.7471C99.0292 94.0134 99.3084 92.9941 99.3084 91.88H97.3084ZM96.8076 93.4153C96.6598 93.6 96.4077 93.76 95.8604 93.76V95.76C96.8491 95.76 97.7491 95.44 98.3693 94.6647L96.8076 93.4153ZM95.8604 93.76C94.9441 93.76 94.3878 93.5511 94.0526 93.2718L92.7723 94.8082C93.5891 95.4889 94.6648 95.76 95.8604 95.76V93.76ZM94.0526 93.2718C93.618 92.9096 93.1658 92.3186 92.7229 91.4328L90.934 92.3272C91.4511 93.3614 92.0549 94.2104 92.7723 94.8082L94.0526 93.2718ZM92.7355 91.4589C90.2189 86.0387 87.6639 81.9813 85.0476 79.3649L83.6333 80.7791C86.0089 83.1547 88.446 86.9693 90.9214 92.3011L92.7355 91.4589ZM85.0476 79.3649C82.8476 77.1649 80.3418 75.46 77.5344 74.2569L76.7465 76.0951C79.3151 77.1959 81.6093 78.7551 83.6333 80.7791L85.0476 79.3649ZM77.5616 74.269C74.7031 72.9418 71.1884 72.304 67.0604 72.304V74.304C70.9965 74.304 74.2018 74.9142 76.7193 76.083L77.5616 74.269ZM67.0604 72.304C60.3396 72.304 54.5061 74.1368 49.6098 77.834L50.815 79.43C55.3268 76.0232 60.7253 74.304 67.0604 74.304V72.304ZM49.6204 77.8261C44.7557 81.4001 41.0948 86.2095 38.6311 92.2208L40.4817 92.9792C42.8181 87.2785 46.2611 82.7759 50.8045 79.4379L49.6204 77.8261ZM38.628 92.2286C36.2723 98.1179 35.1004 104.533 35.1004 111.464H37.1004C37.1004 104.763 38.2326 98.6021 40.4849 92.9714L38.628 92.2286ZM35.1004 111.464C35.1004 125.087 37.2713 135.889 41.7089 143.778L43.452 142.798C39.2496 135.327 37.1004 124.913 37.1004 111.464H35.1004ZM41.7135 143.786C46.312 151.784 53.3668 155.808 62.7404 155.808V153.808C54.0661 153.808 47.6809 150.152 43.4473 142.79L41.7135 143.786ZM62.7404 155.808C65.5196 155.808 68.4566 154.635 71.5272 152.456L70.3697 150.824C67.4883 152.869 64.9533 153.808 62.7404 153.808V155.808ZM71.5219 152.459C72.7199 151.621 73.5413 150.296 74.0629 148.626L72.154 148.03C71.7156 149.432 71.0969 150.315 70.375 150.821L71.5219 152.459ZM74.0514 148.661C74.6664 146.918 75.0159 144.947 75.1154 142.757L73.1175 142.667C73.025 144.701 72.7025 146.474 72.1655 147.995L74.0514 148.661ZM75.1147 142.771C75.3083 139.479 75.4044 135.234 75.4044 130.04H73.4044C73.4044 135.214 73.3086 139.417 73.1182 142.653L75.1147 142.771ZM75.4044 130.04C75.4044 128.619 75.0463 127.349 74.2791 126.287C73.5157 125.229 72.4025 124.455 71.0194 123.923L70.3015 125.789C71.4144 126.217 72.1732 126.787 72.6578 127.457C73.1386 128.123 73.4044 128.965 73.4044 130.04H75.4044ZM71.0318 123.928C68.1098 122.759 65.322 121.877 62.6694 121.288L62.2355 123.24C64.7669 123.803 67.451 124.649 70.289 125.784L71.0318 123.928ZM62.7398 121.306C61.8875 121.05 61.1302 120.67 60.4604 120.168L59.2604 121.768C60.1267 122.418 61.0974 122.902 62.1651 123.222L62.7398 121.306ZM60.5112 120.209C60.0233 119.791 59.8524 119.382 59.8524 118.952H57.8524C57.8524 120.058 58.3536 120.993 59.2097 121.727L60.5112 120.209ZM59.8524 118.952C59.8524 118.626 59.9633 118.405 60.2711 118.2L59.1617 116.536C58.3176 117.099 57.8524 117.934 57.8524 118.952H59.8524ZM60.2126 118.236C60.7165 117.948 61.3098 117.792 62.0204 117.792V115.792C61.0031 115.792 60.0604 116.02 59.2203 116.5L60.2126 118.236ZM62.0204 117.792C65.6426 117.792 69.6041 117.935 73.9059 118.222L74.039 116.226C69.7008 115.937 65.6943 115.792 62.0204 115.792V117.792ZM73.938 118.223C79.5022 118.415 83.168 118.512 84.9164 118.512V116.512C83.2089 116.512 79.5787 116.417 74.0069 116.225L73.938 118.223ZM84.9164 118.512C86.7652 118.512 89.8091 118.415 94.0338 118.223L93.943 116.225C89.7198 116.417 86.7157 116.512 84.9164 116.512V118.512ZM94.0319 118.223C98.4454 118.031 101.691 117.936 103.78 117.936V115.936C101.646 115.936 98.3634 116.033 93.945 116.225L94.0319 118.223ZM103.78 117.936C104.41 117.936 104.696 118.085 104.824 118.206C104.941 118.315 105.084 118.547 105.084 119.096H107.084C107.084 118.205 106.844 117.357 106.192 116.746C105.553 116.147 104.687 115.936 103.78 115.936V117.936ZM105.084 119.096C105.084 119.771 104.902 120.16 104.657 120.405L106.072 121.819C106.787 121.104 107.084 120.149 107.084 119.096H105.084ZM104.584 120.487C104.412 120.702 104.01 120.968 103.152 121.139L103.545 123.101C104.607 122.888 105.549 122.482 106.145 121.737L104.584 120.487ZM103.083 121.156C100.272 121.931 98.1558 122.845 96.9158 123.972L98.2611 125.452C99.1331 124.659 100.857 123.845 103.614 123.084L103.083 121.156ZM96.9158 123.972C95.6426 125.129 94.8535 126.85 94.4461 128.989L96.4108 129.363C96.7714 127.47 97.4223 126.215 98.2611 125.452L96.9158 123.972ZM94.449 128.974C93.7611 132.315 93.4204 135.984 93.4204 139.976H95.4204C95.4204 136.096 95.7517 132.565 96.4079 129.378L94.449 128.974ZM93.4204 139.976V144.872H95.4204V139.976H93.4204ZM93.4204 144.872C93.4204 145.786 93.8736 146.635 94.5252 147.395L96.0437 146.093C95.5432 145.509 95.4204 145.11 95.4204 144.872H93.4204ZM94.6336 147.503C94.9686 147.79 95.2297 148.016 95.4179 148.181C95.5122 148.263 95.5863 148.329 95.6415 148.378C95.669 148.403 95.6905 148.423 95.7065 148.438C95.7237 148.453 95.73 148.46 95.7293 148.459L97.1436 147.045C97.0126 146.914 96.5876 146.544 95.9352 145.985L94.6336 147.503ZM95.7293 148.459C96.5378 149.268 96.8764 150.08 96.8764 150.92H98.8764C98.8764 149.456 98.2551 148.156 97.1435 147.045L95.7293 148.459ZM96.8764 150.92C96.8764 151.464 96.7112 151.983 96.3427 152.499L97.9702 153.661C98.5617 152.833 98.8764 151.912 98.8764 150.92H96.8764ZM96.3882 152.44C96.1379 152.74 95.6644 153.01 94.7619 153.092L94.943 155.084C96.1525 154.974 97.215 154.572 97.9247 153.72L96.3882 152.44ZM94.711 153.098C94.2524 153.164 93.657 153.357 92.9748 153.625C92.2727 153.901 91.4096 154.284 90.3905 154.769L91.2504 156.575C92.2473 156.1 93.0642 155.739 93.7061 155.487C94.3679 155.227 94.7805 155.108 94.9939 155.078L94.711 153.098ZM90.3976 154.766C86.1236 156.76 81.6091 158.471 76.8531 159.898L77.4278 161.814C82.2718 160.361 86.8773 158.616 91.2433 156.578L90.3976 154.766ZM76.8531 159.898C72.1684 161.304 66.6532 162.016 60.2924 162.016V164.016C66.7957 164.016 72.5125 163.288 77.4278 161.814L76.8531 159.898ZM109.367 157.4L109.992 158.181L110 158.175L110.007 158.168L109.367 157.4ZM111.815 156.104L111.558 155.138L111.515 155.149L111.473 155.164L111.815 156.104ZM119.159 152.504L118.548 151.713L118.539 151.72L118.53 151.727L119.159 152.504ZM123.767 146.888L124.678 147.302L124.682 147.292L124.686 147.283L123.767 146.888ZM148.391 84.392L147.451 84.0503L147.449 84.0559L148.391 84.392ZM151.127 75.896L152.093 76.156L152.095 76.147L151.127 75.896ZM152.423 72.008V73.008H152.538L152.65 72.982L152.423 72.008ZM163.223 68.984L163.548 69.9297L163.556 69.927L163.223 68.984ZM167.831 66.68L167.276 65.8479L167.276 65.8479L167.831 66.68ZM171.143 63.944L170.696 63.0496L170.524 63.1357L170.396 63.2796L171.143 63.944ZM173.735 64.376L172.816 64.7699L172.822 64.7845L172.829 64.7989L173.735 64.376ZM175.319 68.408L176.275 68.1146L176.275 68.1139L175.319 68.408ZM195.047 130.328L195.999 130.022L195.997 130.016L195.047 130.328ZM200.375 146.888L201.332 146.597L201.33 146.589L201.327 146.582L200.375 146.888ZM211.895 156.104L212.237 155.164L212.198 155.15L212.158 155.139L211.895 156.104ZM214.199 157.256L213.574 158.037L213.608 158.064L213.644 158.088L214.199 157.256ZM214.199 160.712L213.644 159.88L213.608 159.904L213.574 159.931L214.199 160.712ZM200.807 161L200.841 160.001L200.839 160.001L200.807 161ZM177.479 161L177.443 160.001L177.429 160.001L177.414 160.002L177.479 161ZM163.223 160.856L162.668 161.688L162.668 161.688L163.223 160.856ZM165.527 156.104L165.331 155.123L165.318 155.126L165.306 155.129L165.527 156.104ZM172.871 153.656L173.401 154.504L173.408 154.5L173.414 154.496L172.871 153.656ZM175.031 147.032L174.065 147.29L174.073 147.319L174.083 147.348L175.031 147.032ZM170.567 130.328L169.591 130.545L169.596 130.566L169.601 130.586L170.567 130.328ZM169.703 128.456L168.903 129.056L168.946 129.113L168.996 129.163L169.703 128.456ZM141.623 128.456L140.823 127.856L140.823 127.856L141.623 128.456ZM140.759 130.328L139.81 130.012L139.808 130.018L140.759 130.328ZM138.743 136.52L137.792 136.21L137.785 136.233L137.778 136.257L138.743 136.52ZM137.447 140.696L138.396 141.012L138.396 141.012L137.447 140.696ZM136.007 145.304L136.963 145.598L136.966 145.588L136.969 145.579L136.007 145.304ZM137.447 153.368L136.829 154.154L136.86 154.178L136.892 154.2L137.447 153.368ZM144.935 156.104L144.699 157.076L144.706 157.077L144.714 157.079L144.935 156.104ZM136.583 161L136.639 160.002L136.62 160.001L136.602 160L136.583 161ZM128.807 160.856L128.826 159.856L128.816 159.856H128.807V160.856ZM120.887 161.288L120.998 162.282L120.998 162.282L120.887 161.288ZM116.999 161.576L117.055 162.574L116.999 161.576ZM167.111 116.936L168.092 116.74L168.083 116.698L168.072 116.658L167.111 116.936ZM157.895 85.112L158.856 84.8338L158.853 84.8247L157.895 85.112ZM156.167 85.112L155.239 84.7406L155.23 84.7616L155.223 84.783L156.167 85.112ZM145.079 116.936L145.974 117.383L146.002 117.326L146.024 117.265L145.079 116.936ZM145.511 119.24L144.997 120.097L145.065 120.139L145.14 120.168L145.511 119.24ZM112.391 160.72C111.22 160.72 110.516 160.523 110.13 160.271C109.819 160.068 109.647 159.788 109.647 159.272H107.647C107.647 160.388 108.099 161.332 109.036 161.945C109.899 162.509 111.066 162.72 112.391 162.72V160.72ZM109.647 159.272C109.647 158.582 109.835 158.307 109.992 158.181L108.742 156.619C107.94 157.261 107.647 158.234 107.647 159.272H109.647ZM110.007 158.168C110.462 157.789 111.161 157.406 112.157 157.044L111.473 155.164C110.358 155.57 109.424 156.051 108.727 156.632L110.007 158.168ZM112.073 157.07C115.068 156.271 117.648 155.014 119.788 153.281L118.53 151.727C116.638 153.258 114.322 154.401 111.558 155.138L112.073 157.07ZM119.771 153.295C121.992 151.579 123.641 149.583 124.678 147.302L122.857 146.474C121.974 148.417 120.55 150.165 118.548 151.713L119.771 153.295ZM124.686 147.283C133.814 126.049 142.03 105.197 149.333 84.7281L147.449 84.0559C140.161 104.483 131.961 125.295 122.848 146.493L124.686 147.283ZM149.331 84.7337C150.49 81.5464 151.412 78.6864 152.093 76.156L150.162 75.636C149.499 78.0976 148.596 80.9016 147.451 84.0503L149.331 84.7337ZM152.095 76.147C152.43 74.8564 152.699 73.911 152.904 73.2962C153.008 72.9835 153.085 72.7886 153.135 72.6848C153.163 72.6277 153.162 72.6407 153.129 72.6827C153.113 72.7036 153.063 72.7662 152.974 72.831C152.888 72.8938 152.697 73.008 152.423 73.008V71.008C152.125 71.008 151.909 71.1323 151.795 71.2154C151.678 71.3004 151.598 71.3934 151.551 71.4548C151.455 71.5778 151.384 71.7123 151.333 71.8172C151.227 72.0374 151.118 72.3285 151.007 72.6638C150.779 73.345 150.497 74.3436 150.159 75.645L152.095 76.147ZM152.65 72.982C156.802 72.0164 160.436 70.9996 163.548 69.9297L162.898 68.0383C159.866 69.0804 156.301 70.0795 152.197 71.034L152.65 72.982ZM163.556 69.927C165.266 69.3234 166.877 68.5181 168.386 67.512L167.276 65.8479C165.906 66.7619 164.444 67.4926 162.89 68.041L163.556 69.927ZM168.386 67.512C169.866 66.5256 171.045 65.5595 171.891 64.6084L170.396 63.2796C169.705 64.0565 168.677 64.9144 167.276 65.8479L168.386 67.512ZM171.59 64.8384C171.963 64.6519 172.248 64.5217 172.451 64.4405C172.552 64.3997 172.62 64.3769 172.66 64.3655C172.715 64.3498 172.675 64.368 172.583 64.368V62.368C172.395 62.368 172.223 62.4102 172.11 62.4425C171.982 62.4791 171.846 62.5282 171.708 62.5835C171.431 62.6943 171.091 62.8521 170.696 63.0496L171.59 64.8384ZM172.583 64.368C172.584 64.368 172.574 64.3675 172.563 64.363C172.552 64.3588 172.555 64.3574 172.573 64.3726C172.614 64.4089 172.707 64.5162 172.816 64.7699L174.654 63.9821C174.303 63.1618 173.657 62.368 172.583 62.368V64.368ZM172.829 64.7989C173.486 66.2057 173.995 67.5063 174.363 68.7021L176.275 68.1139C175.875 66.8137 175.329 65.4263 174.641 63.9531L172.829 64.7989ZM174.363 68.7014C180.317 88.1006 186.895 108.747 194.097 130.64L195.997 130.016C188.799 108.133 182.225 87.4994 176.275 68.1146L174.363 68.7014ZM194.095 130.634L199.423 147.194L201.327 146.582L195.999 130.022L194.095 130.634ZM199.419 147.179C200.901 152.052 205.118 155.292 211.632 157.069L212.158 155.139C206.001 153.46 202.537 150.556 201.332 146.597L199.419 147.179ZM211.553 157.044C212.577 157.416 213.223 157.756 213.574 158.037L214.824 156.475C214.216 155.988 213.325 155.56 212.237 155.164L211.553 157.044ZM213.644 158.088C213.872 158.24 214.063 158.504 214.063 159.128H216.063C216.063 158.024 215.678 157.04 214.754 156.424L213.644 158.088ZM214.063 159.128C214.063 159.454 213.952 159.675 213.644 159.88L214.754 161.544C215.598 160.981 216.063 160.146 216.063 159.128H214.063ZM213.574 159.931C213.312 160.141 212.926 160.288 212.327 160.288V162.288C213.264 162.288 214.126 162.051 214.824 161.493L213.574 159.931ZM212.327 160.288C210.427 160.288 206.603 160.193 200.841 160.001L200.774 161.999C206.531 162.191 210.388 162.288 212.327 162.288V160.288ZM200.839 160.001C194.888 159.809 190.745 159.712 188.423 159.712V161.712C190.709 161.712 194.822 161.807 200.775 161.999L200.839 160.001ZM188.423 159.712C186.483 159.712 182.817 159.809 177.443 160.001L177.515 161.999C182.893 161.807 186.524 161.712 188.423 161.712V159.712ZM177.414 160.002C173.015 160.289 169.005 160.432 165.383 160.432V162.432C169.057 162.432 173.111 162.287 177.544 161.998L177.414 160.002ZM165.383 160.432C164.668 160.432 164.153 160.274 163.778 160.024L162.668 161.688C163.445 162.206 164.371 162.432 165.383 162.432V160.432ZM163.778 160.024C163.47 159.819 163.359 159.598 163.359 159.272H161.359C161.359 160.29 161.824 161.125 162.668 161.688L163.778 160.024ZM163.359 159.272C163.359 158.694 163.536 158.285 163.858 157.963C164.206 157.616 164.798 157.295 165.749 157.079L165.306 155.129C164.144 155.393 163.153 155.84 162.444 156.549C161.71 157.283 161.359 158.218 161.359 159.272H163.359ZM165.723 157.085C169.115 156.406 171.708 155.562 173.401 154.504L172.341 152.808C170.962 153.67 168.659 154.458 165.331 155.123L165.723 157.085ZM173.414 154.496C175.309 153.27 176.319 151.525 176.319 149.336H174.319C174.319 150.795 173.698 151.93 172.328 152.816L173.414 154.496ZM176.319 149.336C176.319 148.323 176.22 147.435 175.98 146.716L174.083 147.348C174.227 147.781 174.319 148.429 174.319 149.336H176.319ZM175.997 146.774L171.533 130.07L169.601 130.586L174.065 147.29L175.997 146.774ZM171.543 130.111C171.334 129.167 170.989 128.328 170.41 127.749L168.996 129.163C169.185 129.352 169.417 129.761 169.591 130.545L171.543 130.111ZM170.503 127.856C169.958 127.129 169.116 126.88 168.263 126.88V128.88C168.755 128.88 168.872 129.015 168.903 129.056L170.503 127.856ZM168.263 126.88H143.207V128.88H168.263V126.88ZM143.207 126.88C142.315 126.88 141.391 127.099 140.823 127.856L142.423 129.056C142.432 129.045 142.563 128.88 143.207 128.88V126.88ZM140.823 127.856C140.436 128.372 140.108 129.12 139.811 130.012L141.708 130.644C141.987 129.808 142.234 129.308 142.423 129.056L140.823 127.856ZM139.808 130.018L137.792 136.21L139.694 136.83L141.71 130.638L139.808 130.018ZM137.778 136.257C137.497 137.287 137.072 138.659 136.499 140.38L138.396 141.012C138.974 139.277 139.413 137.865 139.708 136.783L137.778 136.257ZM136.499 140.38C135.919 142.118 135.435 143.668 135.046 145.029L136.969 145.579C137.348 144.252 137.823 142.73 138.396 141.012L136.499 140.38ZM135.051 145.01C134.639 146.349 134.431 147.696 134.431 149.048H136.431C136.431 147.904 136.607 146.755 136.963 145.598L135.051 145.01ZM134.431 149.048C134.431 151.155 135.226 152.895 136.829 154.154L138.065 152.582C136.98 151.729 136.431 150.589 136.431 149.048H134.431ZM136.892 154.2C138.488 155.264 141.131 156.208 144.699 157.076L145.172 155.132C141.635 154.272 139.286 153.392 138.002 152.536L136.892 154.2ZM144.714 157.079C145.664 157.295 146.257 157.616 146.604 157.963C146.926 158.285 147.103 158.694 147.103 159.272H149.103C149.103 158.218 148.752 157.283 148.018 156.549C147.31 155.84 146.318 155.393 145.157 155.129L144.714 157.079ZM147.103 159.272C147.103 159.653 146.984 159.824 146.792 159.952C146.529 160.128 146.008 160.288 145.079 160.288V162.288C146.167 162.288 147.157 162.112 147.902 161.616C148.718 161.072 149.103 160.235 149.103 159.272H147.103ZM145.079 160.288C142.897 160.288 140.085 160.193 136.639 160.002L136.528 161.998C139.993 162.191 142.845 162.288 145.079 162.288V160.288ZM136.602 160L128.826 159.856L128.789 161.856L136.565 162L136.602 160ZM128.807 159.856C126.083 159.856 123.407 160.002 120.777 160.294L120.998 162.282C123.552 161.998 126.155 161.856 128.807 161.856V159.856ZM120.777 160.294C119.941 160.387 118.668 160.482 116.944 160.578L117.055 162.574C118.787 162.478 120.105 162.381 120.998 162.282L120.777 160.294ZM116.944 160.578C115.229 160.673 113.712 160.72 112.391 160.72V162.72C113.758 162.72 115.313 162.671 117.055 162.574L116.944 160.578ZM165.239 120.528C166.005 120.528 166.722 120.444 167.282 120.182C167.575 120.045 167.863 119.843 168.078 119.542C168.299 119.232 168.399 118.878 168.399 118.52H166.399C166.399 118.498 166.409 118.438 166.45 118.38C166.485 118.331 166.503 118.339 166.436 118.37C166.276 118.444 165.913 118.528 165.239 118.528V120.528ZM168.399 118.52C168.399 118.405 168.379 118.275 168.37 118.215C168.356 118.124 168.336 118.009 168.311 117.873C168.261 117.6 168.188 117.222 168.092 116.74L166.131 117.132C166.226 117.61 166.297 117.976 166.343 118.231C166.367 118.359 166.383 118.454 166.393 118.519C166.408 118.615 166.399 118.587 166.399 118.52H168.399ZM168.072 116.658L158.856 84.8338L156.935 85.3902L166.151 117.214L168.072 116.658ZM158.853 84.8247C158.701 84.3171 158.528 83.8638 158.321 83.5175C158.159 83.2482 157.757 82.672 157.031 82.672V84.672C156.806 84.672 156.66 84.5741 156.607 84.5302C156.562 84.4923 156.566 84.48 156.606 84.5465C156.686 84.6802 156.802 84.9469 156.937 85.3993L158.853 84.8247ZM157.031 82.672C156.576 82.672 156.277 82.9399 156.162 83.0549C156.019 83.1978 155.904 83.3664 155.814 83.5175C155.628 83.8265 155.437 84.2451 155.239 84.7406L157.096 85.4834C157.281 85.0189 157.426 84.7175 157.529 84.5465C157.582 84.4576 157.599 84.4462 157.576 84.4691C157.563 84.4822 157.518 84.5253 157.44 84.5687C157.36 84.6131 157.219 84.672 157.031 84.672V82.672ZM155.223 84.783L144.135 116.607L146.024 117.265L157.112 85.441L155.223 84.783ZM144.185 116.489C143.932 116.995 143.791 117.531 143.791 118.088H145.791C145.791 117.877 145.843 117.645 145.974 117.383L144.185 116.489ZM143.791 118.088C143.791 118.983 144.275 119.664 144.997 120.097L146.026 118.383C145.788 118.24 145.791 118.153 145.791 118.088H143.791ZM145.14 120.168C145.768 120.42 146.476 120.528 147.239 120.528V118.528C146.658 118.528 146.215 118.444 145.883 118.312L145.14 120.168ZM147.239 120.528H165.239V118.528H147.239V120.528Z" fill="black"/>
</g>
</g>
<defs>
<filter id="filter0_d_132_190" x="9.74844" y="63.368" width="211.315" height="107.648" filterUnits="userSpaceOnUse" color-interpolation-filters="sRGB">
<feFlood flood-opacity="0" result="BackgroundImageFix"/>
<feColorMatrix in="SourceAlpha" type="matrix" values="0 0 0 0 0 0 0 0 0 0 0 0 0 0 0 0 0 0 127 0" result="hardAlpha"/>
<feOffset dx="5" dy="7"/>
<feGaussianBlur stdDeviation="0.5"/>
<feComposite in2="hardAlpha" operator="out"/>
<feColorMatrix type="matrix" values="0 0 0 0 0 0 0 0 0 0 0 0 0 0 0 0 0 0 1 0"/>
<feBlend mode="normal" in2="BackgroundImageFix" result="effect1_dropShadow_132_190"/>
<feBlend mode="normal" in="SourceGraphic" in2="effect1_dropShadow_132_190" result="shape"/>
</filter>
<clipPath id="clip0_132_190">
<rect width="220" height="220" fill="white"/>
</clipPath>
</defs>
</svg>
